<svg xmlns="http://www.w3.org/2000/svg" width="512" height="512" viewBox="0 0 128 128">
    <!-- Background Badge / Shield -->
    <path d="M64,8 L112,28 L112,68 C112,96 64,120 64,120 C64,120 16,96 16,68 L16,28 Z" fill="#1E293B" stroke="#06B6D4" stroke-width="4" />
    <!-- Inner Glow Ring -->
    <path d="M64,16 L104,33 L104,66 C104,89 64,110 64,110 C64,110 24,89 24,66 L24,33 Z" fill="#0F172A" stroke="#F59E0B" stroke-width="2" />
    <!-- Stylized "A" -->
    <path d="M38,78 L48,46 L58,78 M41,70 L55,70" stroke="#06B6D4" stroke-width="5" stroke-linecap="round" stroke-linejoin="round" fill="none" />
    <!-- Stylized "D" -->
    <path d="M62,46 L72,46 C80,46 84,52 84,62 C84,72 80,78 72,78 L62,78 Z" stroke="#F59E0B" stroke-width="5" stroke-linecap="round" stroke-linejoin="round" fill="none" />
    <!-- Stylized "P" -->
    <path d="M88,78 L88,46 L98,46 C104,46 108,50 108,56 C108,62 104,66 98,66 L88,66" stroke="#10B981" stroke-width="5" stroke-linecap="round" stroke-linejoin="round" fill="none" />
    <!-- Core Diamond Emblem -->
    <path d="M64,28 L69,38 L64,48 L59,38 Z" fill="#F59E0B" />
</svg>
